<svg width="205" height="205" viewBox="0 0 205 205" fill="none" xmlns="http://www.w3.org/2000/svg">
<path d="M203.2 194.8L158.7 150.2C174.108 132.587 182.068 109.674 180.898 86.3015C179.728 62.9288 169.52 40.9258 152.43 24.939C135.34 8.95216 112.706 0.233154 89.3071 0.623266C65.9084 1.01338 43.5773 10.4821 27.0297 27.0297C10.4821 43.5773 1.01338 65.9084 0.623266 89.3071C0.233154 112.706 8.95216 135.34 24.939 152.43C40.9258 169.52 62.9288 179.728 86.3015 180.898C109.674 182.068 132.587 174.108 150.2 158.7L194.8 203.2C195.914 204.314 197.425 204.94 199 204.94C200.575 204.94 202.086 204.314 203.2 203.2C204.314 202.086 204.94 200.575 204.94 199C204.94 197.425 204.314 195.914 203.2 194.8ZM13 91C13 75.5731 17.5746 60.4926 26.1454 47.6655C34.7161 34.8385 46.8981 24.841 61.1507 18.9374C75.4033 13.0338 91.0865 11.4891 106.217 14.4988C121.348 17.5084 135.246 24.9372 146.154 35.8457C157.063 46.7542 164.492 60.6524 167.501 75.783C170.511 90.9135 168.966 106.597 163.063 120.849C157.159 135.102 147.162 147.284 134.334 155.855C121.507 164.425 106.427 169 91 169C70.3212 168.974 50.497 160.747 35.8749 146.125C21.2528 131.503 13.0265 111.679 13 91Z" fill="#636363"/>
</svg>
